<?xml version="1.0" encoding="UTF-8" standalone="no"?>
<!-- Created with Inkscape (http://www.inkscape.org/) -->

<svg
   width="325"
   height="325"
   viewBox="0 0 325.00001 325"
   version="1.1"
   id="svg1"
   xml:space="preserve"
   inkscape:version="1.4 (e7c3feb1, 2024-10-09)"
   sodipodi:docname="logomark.svg"
   inkscape:export-filename="logomark-128.png"
   inkscape:export-xdpi="37.809231"
   inkscape:export-ydpi="37.809231"
   xmlns:inkscape="http://www.inkscape.org/namespaces/inkscape"
   xmlns:sodipodi="http://sodipodi.sourceforge.net/DTD/sodipodi-0.dtd"
   xmlns:xlink="http://www.w3.org/1999/xlink"
   xmlns="http://www.w3.org/2000/svg"
   xmlns:svg="http://www.w3.org/2000/svg"><sodipodi:namedview
     id="namedview1"
     pagecolor="#ffffff"
     bordercolor="#3f3f3f"
     borderopacity="1"
     inkscape:showpageshadow="true"
     inkscape:pageopacity="0"
     inkscape:pagecheckerboard="false"
     inkscape:deskcolor="#505050"
     inkscape:document-units="px"
     showguides="true"
     showborder="true"
     borderlayer="true"
     inkscape:clip-to-page="false"
     inkscape:zoom="0.5"
     inkscape:cx="231"
     inkscape:cy="100"
     inkscape:window-width="2560"
     inkscape:window-height="1305"
     inkscape:window-x="1512"
     inkscape:window-y="25"
     inkscape:window-maximized="1"
     inkscape:current-layer="g10"
     inkscape:export-bgcolor="#ffffff00" /><defs
     id="defs1"><linearGradient
       id="linearGradient7"
       inkscape:collect="always"><stop
         style="stop-color:#003a89;stop-opacity:1;"
         offset="0"
         id="stop7" /><stop
         style="stop-color:#0047ab;stop-opacity:1;"
         offset="1"
         id="stop8" /></linearGradient><linearGradient
       inkscape:collect="always"
       xlink:href="#linearGradient7"
       id="linearGradient8"
       x1="255.99986"
       y1="374.94278"
       x2="255.99986"
       y2="137.05724"
       gradientUnits="userSpaceOnUse" /><linearGradient
       inkscape:collect="always"
       xlink:href="#linearGradient7"
       id="linearGradient10"
       gradientUnits="userSpaceOnUse"
       x1="255.99986"
       y1="374.94278"
       x2="255.99986"
       y2="137.05724" /></defs><g
     inkscape:groupmode="layer"
     id="layer2"
     inkscape:label="bg-light"
     transform="translate(-93.737823,-93.479385)"
     style="display:none"><rect
       style="fill:#ffffff;fill-opacity:1"
       id="rect6"
       width="512"
       height="512"
       x="0"
       y="0" /></g><g
     inkscape:groupmode="layer"
     id="layer3"
     inkscape:label="bg-dark"
     style="display:none"
     transform="translate(-93.737823,-93.479385)"><rect
       style="fill:#1a1a1a;fill-opacity:1"
       id="rect7"
       width="512"
       height="512"
       x="0"
       y="0" /></g><g
     inkscape:label="draft"
     inkscape:groupmode="layer"
     id="layer1"
     style="display:none"
     sodipodi:insensitive="true"
     transform="translate(-93.737823,-93.479385)"><path
       id="path1"
       style="fill:url(#linearGradient10);fill-opacity:1;stroke:none;stroke-width:2;stroke-dasharray:none;stroke-opacity:1"
       inkscape:transform-center-x="0.0021119432"
       inkscape:transform-center-y="34.261525"
       d="m 255.99987,374.94277 c 0,0 -52.9576,-27.10612 -87.32549,-86.63305 C 134.30649,228.78278 137.3107,169.3671 137.3107,169.3671 c 0,0 49.94909,-32.30987 118.68917,-32.30987 68.74008,0 118.68917,32.30988 118.68917,32.30988 0,0 3.0085,59.41598 -31.36033,118.94454 -34.36883,59.52856 -87.32884,86.63112 -87.32884,86.63112 z"
       sodipodi:nodetypes="czczczc" /><text
       xml:space="preserve"
       style="font-style:normal;font-variant:normal;font-weight:800;font-stretch:normal;font-size:201.407px;font-family:'JetBrains Mono';-inkscape-font-specification:'JetBrains Mono Ultra-Bold';text-align:start;writing-mode:lr-tb;direction:ltr;text-anchor:start;fill:#fff400;fill-opacity:1;stroke-width:6.29392"
       x="306.93396"
       y="236.03897"
       id="text6"
       transform="rotate(15.07239)"><tspan
         sodipodi:role="line"
         id="tspan6"
         x="306.93396"
         y="236.03897"
         style="font-style:normal;font-variant:normal;font-weight:800;font-stretch:normal;font-size:201.407px;font-family:'JetBrains Mono';-inkscape-font-specification:'JetBrains Mono Ultra-Bold';text-align:center;text-anchor:middle;fill:#fff400;fill-opacity:1;stroke-width:6.29392">{}</tspan></text></g><g
     inkscape:label="render"
     inkscape:groupmode="layer"
     id="g10"
     transform="translate(-93.737823,-93.479385)"><path
       id="path10"
       style="fill:url(#linearGradient8);fill-opacity:1;stroke:none;stroke-width:2;stroke-dasharray:none;stroke-opacity:1"
       inkscape:transform-center-x="0.0021119432"
       inkscape:transform-center-y="34.261525"
       d="m 256,137.05664 c -3.68814,0 -7.30962,0.11107 -10.88477,0.28711 0.0972,0.0257 0.19166,0.0441 0.28907,0.0703 l 16.53125,4.45117 -7.33203,27.22657 -10.69727,-2.88086 c -3.75991,-1.01256 -7.03828,-0.71403 -9.83594,0.89648 -2.63308,1.51578 -4.29118,4.06042 -4.97461,7.63086 l -4.99218,30.15039 c -1.08752,6.10366 -4.19942,10.68939 -9.33594,13.75586 -4.97196,2.97175 -11.19771,4.14533 -18.67774,3.52149 6.81663,3.08723 11.59274,7.29509 14.33008,12.62109 2.90191,5.23126 3.27489,10.82336 1.11524,16.77734 l -10.77344,28.38672 c -1.33168,3.39586 -1.25821,6.47359 0.22266,9.23633 1.64543,2.668 4.41317,4.52674 8.30273,5.57422 l 10.69727,2.88086 -7.33399,27.22656 -16.5293,-4.45117 c -2.46892,-0.66489 -4.77001,-1.47931 -6.93554,-2.41016 C 220.81151,356.9141 256,374.94336 256,374.94336 c 0,0 52.95929,-27.1023 87.32812,-86.63086 1.96524,-3.40389 3.79312,-6.80716 5.52149,-10.19922 l -21.89844,-5.89648 c -3.88956,-1.04748 -7.26923,-0.63545 -10.13672,1.23437 -2.73784,1.90474 -4.47087,4.98271 -5.19922,9.23633 l -4.67773,28.98633 c -1.14246,7.34036 -3.78912,13.30031 -7.94336,17.88281 -4.18916,4.71216 -9.47346,7.80844 -15.85156,9.28906 -6.28338,1.64519 -13.24897,1.43894 -20.89844,-0.62109 l -16.53125,-4.45117 7.33203,-27.22852 10.69727,2.88086 c 3.88956,1.04748 7.15012,0.81461 9.7832,-0.70117 2.79766,-1.61052 4.47357,-4.21886 5.02734,-7.82422 l 4.93946,-29.95703 c 1.12243,-6.23332 4.18649,-10.90056 9.19336,-14.00195 5.17143,-3.19614 11.47871,-4.41757 18.92383,-3.66407 -6.78172,-3.21689 -11.64131,-7.3769 -14.57813,-12.47851 -2.77226,-5.19634 -3.09544,-10.70692 -0.9707,-16.53125 l 10.82617,-28.58008 c 1.20203,-3.43078 0.97941,-6.48044 -0.66602,-9.14844 -1.48087,-2.76274 -4.10141,-4.64955 -7.86132,-5.66211 l -10.69532,-2.88086 7.33203,-27.22851 16.53125,4.45312 c 7.64948,2.06004 13.79517,5.31326 18.4375,9.76172 4.67724,4.31881 7.66198,9.50377 8.95313,15.55274 1.45571,5.95423 0.85086,12.32742 -1.8125,19.11914 l -10.82617,28.58008 c -1.47136,3.91446 -1.5187,7.44791 -0.14258,10.5996 1.54069,3.05696 4.25692,5.10878 8.14648,6.15625 l 25.85742,6.96289 c 16.36948,-45.1699 14.54883,-82.58593 14.54883,-82.58593 0,0 -49.94937,-32.31055 -118.68945,-32.31055 z m -42.20508,4.05078 c -46.00764,8.6465 -76.48437,28.25977 -76.48437,28.25977 0,0 -2.94791,58.65206 30.7207,117.79101 0.21081,-3.88128 1.12699,-7.92818 2.77148,-12.14648 l 10.51172,-27.41406 c 1.50627,-4.04413 1.48991,-7.59539 -0.0508,-10.65235 -1.41103,-3.02204 -4.06161,-5.05604 -7.95117,-6.10351 l -27.22656,-7.33203 7.33203,-27.22657 27.22656,7.33203 c 3.88957,1.04748 7.20357,0.61763 9.94141,-1.28711 2.9024,-1.99947 4.70109,-5.05962 5.39453,-9.18359 l 4.99023,-30.15234 c 1.2372,-7.17579 3.85017,-13.00833 7.83985,-17.4961 1.522,-1.6789 3.18596,-3.13884 4.98437,-4.38867 z" /></g></svg>
